<?xml version="1.0" encoding="utf-8" standalone="no"?>
<!DOCTYPE svg PUBLIC "-//W3C//DTD SVG 1.1//EN"
  "http://www.w3.org/Graphics/SVG/1.1/DTD/svg11.dtd">
<svg xmlns:xlink="http://www.w3.org/1999/xlink" width="153.36pt" height="211.86pt" viewBox="0 0 153.36 211.86" xmlns="http://www.w3.org/2000/svg" version="1.1">
 <metadata>
  <rdf:RDF xmlns:dc="http://purl.org/dc/elements/1.1/" xmlns:cc="http://creativecommons.org/ns#" xmlns:rdf="http://www.w3.org/1999/02/22-rdf-syntax-ns#">
   <cc:Work>
    <dc:type rdf:resource="http://purl.org/dc/dcmitype/StillImage"/>
    <dc:date>2025-04-20T18:03:08.893890</dc:date>
    <dc:format>image/svg+xml</dc:format>
    <dc:creator>
     <cc:Agent>
      <dc:title>Matplotlib v3.10.1, https://matplotlib.org/</dc:title>
     </cc:Agent>
    </dc:creator>
   </cc:Work>
  </rdf:RDF>
 </metadata>
 <defs>
  <style type="text/css">*{stroke-linejoin: round; stroke-linecap: butt}</style>
 </defs>
 <g id="figure_1">
  <g id="patch_1">
   <path d="M 0 211.86 
L 153.36 211.86 
L 153.36 0 
L 0 0 
z
" style="fill: #ffffff"/>
  </g>
  <g id="axes_1">
   <g id="patch_2">
    <path d="M 112.68 112.68 
C 117.453656 112.68 122.032438 110.783406 125.407922 107.407922 
C 128.783406 104.032438 130.68 99.453656 130.68 94.68 
C 130.68 89.906344 128.783406 85.327562 125.407922 81.952078 
C 122.032438 78.576594 117.453656 76.68 112.68 76.68 
C 107.906344 76.68 103.327562 78.576594 99.952078 81.952078 
C 96.576594 85.327562 94.68 89.906344 94.68 94.68 
C 94.68 99.453656 96.576594 104.032438 99.952078 107.407922 
C 103.327562 110.783406 107.906344 112.68 112.68 112.68 
L 112.68 112.68 
z
" clip-path="url(#p925688a40e)" style="fill: none; stroke: #000000; stroke-width: 2; stroke-linejoin: miter"/>
   </g>
   <g id="patch_3">
    <path d="M 40.68 112.68 
C 45.453656 112.68 50.032438 110.783406 53.407922 107.407922 
C 56.783406 104.032438 58.68 99.453656 58.68 94.68 
C 58.68 89.906344 56.783406 85.327562 53.407922 81.952078 
C 50.032438 78.576594 45.453656 76.68 40.68 76.68 
C 35.906344 76.68 31.327562 78.576594 27.952078 81.952078 
C 24.576594 85.327562 22.68 89.906344 22.68 94.68 
C 22.68 99.453656 24.576594 104.032438 27.952078 107.407922 
C 31.327562 110.783406 35.906344 112.68 40.68 112.68 
L 40.68 112.68 
z
" clip-path="url(#p925688a40e)" style="fill: none; stroke: #000000; stroke-width: 2; stroke-linejoin: miter"/>
   </g>
   <g id="patch_4">
    <path d="M 76.68 40.68 
C 81.453656 40.68 86.032438 38.783406 89.407922 35.407922 
C 92.783406 32.032438 94.68 27.453656 94.68 22.68 
C 94.68 17.906344 92.783406 13.327562 89.407922 9.952078 
C 86.032438 6.576594 81.453656 4.68 76.68 4.68 
C 71.906344 4.68 67.327562 6.576594 63.952078 9.952078 
C 60.576594 13.327562 58.68 17.906344 58.68 22.68 
C 58.68 27.453656 60.576594 32.032438 63.952078 35.407922 
C 67.327562 38.783406 71.906344 40.68 76.68 40.68 
L 76.68 40.68 
z
" clip-path="url(#p925688a40e)" style="fill: none; stroke: #000000; stroke-width: 2; stroke-linejoin: miter"/>
   </g>
   <g id="line2d_1">
    <path d="M 4.68 166.68 
L 22.68 166.68 
L 40.68 166.68 
" clip-path="url(#p925688a40e)" style="fill: none; stroke: #000000; stroke-width: 2; stroke-linecap: round"/>
   </g>
   <g id="line2d_2">
    <path d="M 40.68 166.68 
L 40.68 153.18 
L 40.68 139.68 
" clip-path="url(#p925688a40e)" style="fill: none; stroke: #000000; stroke-width: 2; stroke-linecap: round"/>
   </g>
   <g id="line2d_3">
    <path d="M 40.68 139.68 
L 66.555 139.68 
M 86.805 139.68 
L 112.68 139.68 
" clip-path="url(#p925688a40e)" style="fill: none; stroke: #000000; stroke-width: 2; stroke-linecap: round"/>
   </g>
   <g id="line2d_4">
    <path d="M 66.555 126.18 
L 66.555 153.18 
" clip-path="url(#p925688a40e)" style="fill: none; stroke: #000000; stroke-width: 2; stroke-linecap: round"/>
   </g>
   <g id="line2d_5">
    <path d="M 73.305 132.93 
L 73.305 146.43 
" clip-path="url(#p925688a40e)" style="fill: none; stroke: #000000; stroke-width: 2; stroke-linecap: round"/>
   </g>
   <g id="line2d_6">
    <path d="M 80.055 126.18 
L 80.055 153.18 
" clip-path="url(#p925688a40e)" style="fill: none; stroke: #000000; stroke-width: 2; stroke-linecap: round"/>
   </g>
   <g id="line2d_7">
    <path d="M 86.805 132.93 
L 86.805 146.43 
" clip-path="url(#p925688a40e)" style="fill: none; stroke: #000000; stroke-width: 2; stroke-linecap: round"/>
   </g>
   <g id="line2d_8">
    <path d="M 112.68 139.68 
L 112.68 153.18 
L 112.68 166.68 
" clip-path="url(#p925688a40e)" style="fill: none; stroke: #000000; stroke-width: 2; stroke-linecap: round"/>
   </g>
   <g id="line2d_9">
    <path d="M 40.68 166.68 
L 40.68 180.18 
L 40.68 193.68 
" clip-path="url(#p925688a40e)" style="fill: none; stroke: #000000; stroke-width: 2; stroke-linecap: round"/>
   </g>
   <g id="line2d_10">
    <path d="M 40.68 193.68 
L 66.555 193.68 
M 86.805 193.68 
L 112.68 193.68 
" clip-path="url(#p925688a40e)" style="fill: none; stroke: #000000; stroke-width: 2; stroke-linecap: round"/>
   </g>
   <g id="line2d_11">
    <path d="M 66.555 180.18 
L 66.555 207.18 
" clip-path="url(#p925688a40e)" style="fill: none; stroke: #000000; stroke-width: 2; stroke-linecap: round"/>
   </g>
   <g id="line2d_12">
    <path d="M 73.305 186.93 
L 73.305 200.43 
" clip-path="url(#p925688a40e)" style="fill: none; stroke: #000000; stroke-width: 2; stroke-linecap: round"/>
   </g>
   <g id="line2d_13">
    <path d="M 80.055 180.18 
L 80.055 207.18 
" clip-path="url(#p925688a40e)" style="fill: none; stroke: #000000; stroke-width: 2; stroke-linecap: round"/>
   </g>
   <g id="line2d_14">
    <path d="M 86.805 186.93 
L 86.805 200.43 
" clip-path="url(#p925688a40e)" style="fill: none; stroke: #000000; stroke-width: 2; stroke-linecap: round"/>
   </g>
   <g id="line2d_15">
    <path d="M 112.68 193.68 
L 112.68 180.18 
L 112.68 166.68 
" clip-path="url(#p925688a40e)" style="fill: none; stroke: #000000; stroke-width: 2; stroke-linecap: round"/>
   </g>
   <g id="line2d_16">
    <path d="M 112.68 166.68 
L 130.68 166.68 
L 148.68 166.68 
" clip-path="url(#p925688a40e)" style="fill: none; stroke: #000000; stroke-width: 2; stroke-linecap: round"/>
   </g>
   <g id="line2d_17">
    <path d="M 148.68 166.68 
L 148.68 130.68 
L 148.68 94.68 
" clip-path="url(#p925688a40e)" style="fill: none; stroke: #000000; stroke-width: 2; stroke-linecap: round"/>
   </g>
   <g id="line2d_18">
    <path d="M 148.68 94.68 
L 130.68 94.68 
L 130.68 94.68 
M 94.68 94.68 
L 94.68 94.68 
L 76.68 94.68 
" clip-path="url(#p925688a40e)" style="fill: none; stroke: #000000; stroke-width: 2; stroke-linecap: round"/>
   </g>
   <g id="line2d_19">
    <path d="M 76.68 94.68 
L 58.68 94.68 
L 58.68 94.68 
M 22.68 94.68 
L 22.68 94.68 
L 4.68 94.68 
" clip-path="url(#p925688a40e)" style="fill: none; stroke: #000000; stroke-width: 2; stroke-linecap: round"/>
   </g>
   <g id="line2d_20">
    <path d="M 58.68 94.68 
L 58.524203 95.305766 
L 58.30275 95.935988 
L 58.015507 96.564356 
L 57.662995 97.184579 
L 57.246392 97.790448 
L 56.767513 98.375897 
L 56.228802 98.935065 
L 55.633297 99.462355 
L 54.984609 99.952487 
L 54.286877 100.400555 
L 53.544734 100.802073 
L 52.763257 101.15302 
L 51.947917 101.449884 
L 51.104523 101.689693 
L 50.239166 101.870046 
L 49.358155 101.989137 
L 48.467959 102.045773 
L 47.575136 102.039389 
L 46.686271 101.970048 
L 45.807911 101.838444 
L 44.946495 101.645895 
L 44.108294 101.394328 
L 43.299348 101.086261 
L 42.525401 100.72478 
L 41.791849 100.313503 
L 41.103683 99.856546 
L 40.465439 99.358486 
L 39.881154 98.824308 
L 39.354324 98.259361 
L 38.88787 97.669299 
L 38.48411 97.06003 
L 38.144732 96.437654 
L 37.870781 95.808402 
L 37.662647 95.178573 
L 37.520061 94.554473 
L 37.442096 93.94235 
L 37.42718 93.348331 
L 37.47311 92.778364 
L 37.577073 92.238155 
L 37.735675 91.733113 
L 37.944975 91.268292 
L 38.200525 90.848347 
L 38.497414 90.477482 
L 38.830316 90.15941 
L 39.193545 89.897315 
L 39.581112 89.693821 
L 39.986784 89.550965 
L 40.404147 89.470177 
L 40.826669 89.452267 
L 41.247767 89.497413 
L 41.660873 89.605164 
L 42.059498 89.77444 
L 42.437297 90.003548 
L 42.788137 90.290193 
L 43.106151 90.631506 
L 43.385802 91.024069 
L 43.621939 91.463954 
L 43.809843 91.946755 
L 43.945281 92.467639 
L 44.024544 93.021393 
L 44.044486 93.602471 
L 44.002553 94.205056 
L 43.896812 94.823117 
L 43.72597 95.450465 
L 43.489383 96.080819 
L 43.187067 96.70787 
L 42.819695 97.325338 
L 42.388593 97.927044 
L 41.895723 98.506962 
L 41.343667 99.059288 
L 40.735598 99.578491 
L 40.075251 100.059374 
L 39.366884 100.497122 
L 38.615235 100.887354 
L 37.825477 101.226162 
L 37.003163 101.510154 
L 36.154172 101.736487 
L 35.284652 101.902896 
L 34.400953 102.007714 
L 33.50957 102.049892 
L 32.617075 102.029008 
L 31.730048 101.945271 
L 30.855017 101.799519 
L 29.99839 101.593211 
L 29.166389 101.328413 
L 28.364991 101.007776 
L 27.599866 100.634509 
L 26.876321 100.21235 
L 26.199245 99.745525 
L 25.573066 99.238707 
L 25.001699 98.696971 
L 24.48851 98.12574 
L 24.036284 97.530733 
L 23.647197 96.917906 
L 23.322789 96.293394 
L 23.063957 95.663451 
L 22.870937 95.034382 
L 22.74331 94.412485 
L 22.68 93.803986 
" clip-path="url(#p925688a40e)" style="fill: none; stroke: #000000; stroke-width: 2; stroke-linecap: round"/>
   </g>
   <g id="line2d_21">
    <path d="M 148.68 94.68 
L 148.68 58.68 
L 148.68 22.68 
" clip-path="url(#p925688a40e)" style="fill: none; stroke: #000000; stroke-width: 2; stroke-linecap: round"/>
   </g>
   <g id="line2d_22">
    <path d="M 148.68 22.68 
L 94.68 22.68 
L 94.68 22.68 
M 58.68 22.68 
L 58.68 22.68 
L 4.68 22.68 
" clip-path="url(#p925688a40e)" style="fill: none; stroke: #000000; stroke-width: 2; stroke-linecap: round"/>
   </g>
   <g id="line2d_23">
    <path d="M 4.68 22.68 
L 4.68 94.68 
L 4.68 166.68 
" clip-path="url(#p925688a40e)" style="fill: none; stroke: #000000; stroke-width: 2; stroke-linecap: round"/>
   </g>
   <g id="text_1">
    <!-- A -->
    <g transform="translate(107.891563 98.543125) scale(0.14 -0.14)">
     <defs>
      <path id="DejaVuSans-41" d="M 2188 4044 
L 1331 1722 
L 3047 1722 
L 2188 4044 
z
M 1831 4666 
L 2547 4666 
L 4325 0 
L 3669 0 
L 3244 1197 
L 1141 1197 
L 716 0 
L 50 0 
L 1831 4666 
z
" transform="scale(0.015625)"/>
     </defs>
     <use xlink:href="#DejaVuSans-41"/>
    </g>
   </g>
   <g id="text_2">
    <!-- V -->
    <g transform="translate(71.891563 26.543125) scale(0.14 -0.14)">
     <defs>
      <path id="DejaVuSans-56" d="M 1831 0 
L 50 4666 
L 709 4666 
L 2188 738 
L 3669 4666 
L 4325 4666 
L 2547 0 
L 1831 0 
z
" transform="scale(0.015625)"/>
     </defs>
     <use xlink:href="#DejaVuSans-56"/>
    </g>
   </g>
  </g>
 </g>
 <defs>
  <clipPath id="p925688a40e">
   <rect x="0" y="-0" width="153.36" height="211.86"/>
  </clipPath>
 </defs>
</svg>
